<?xml version="1.0" standalone="no"?>
<!DOCTYPE svg PUBLIC "-//W3C//DTD SVG 20010904//EN"
 "http://www.w3.org/TR/2001/REC-SVG-20010904/DTD/svg10.dtd">
<svg version="1.0" xmlns="http://www.w3.org/2000/svg"
 width="720.000000pt" height="720.000000pt" viewBox="0 0 720.000000 720.000000"
 preserveAspectRatio="xMidYMid meet">
<metadata>
Created by potrace 1.14, written by Peter Selinger 2001-2017
</metadata>
<g transform="translate(0.000000,720.000000) scale(0.100000,-0.100000)"
fill="#000000" stroke="none">
<path d="M374 7163 c8 -21 17 -47 22 -58 4 -11 8 -22 9 -25 1 -3 7 -18 14 -35
15 -35 94 -242 128 -335 13 -36 28 -76 35 -90 12 -28 15 -35 56 -145 17 -44
45 -118 64 -165 18 -47 33 -87 33 -90 1 -6 93 -246 106 -275 5 -11 22 -58 39
-105 17 -47 40 -104 50 -127 11 -24 20 -46 20 -50 0 -9 75 -206 90 -238 5 -11
19 -47 30 -80 23 -64 37 -99 51 -127 5 -10 9 -22 9 -27 0 -5 8 -26 17 -47 9
-22 18 -46 19 -54 2 -8 7 -23 13 -35 6 -11 26 -63 46 -115 20 -52 40 -105 46
-118 5 -13 25 -67 45 -120 19 -53 42 -112 51 -131 8 -18 16 -39 18 -45 1 -6 7
-24 14 -41 7 -16 37 -95 67 -175 52 -137 73 -192 97 -250 14 -35 22 -56 47
-125 12 -33 28 -73 35 -90 7 -16 25 -64 40 -105 15 -41 33 -88 40 -105 7 -16
16 -41 20 -54 4 -13 14 -40 23 -60 9 -20 16 -38 17 -41 1 -7 44 -121 54 -145
17 -40 41 -102 82 -210 46 -123 86 -230 99 -260 4 -11 18 -47 30 -80 12 -33
27 -71 32 -85 6 -14 14 -34 18 -45 4 -11 15 -38 23 -60 16 -41 29 -76 32 -85
1 -3 5 -14 10 -25 4 -11 17 -42 27 -70 10 -27 22 -59 27 -70 5 -11 19 -47 31
-80 12 -33 26 -69 31 -80 9 -20 52 -136 54 -145 1 -3 7 -18 14 -35 7 -16 21
-52 31 -80 10 -27 39 -104 65 -170 25 -66 69 -181 96 -255 28 -74 57 -148 64
-165 13 -27 66 -166 131 -340 12 -33 41 -109 64 -170 63 -164 72 -187 134
-350 31 -82 61 -159 65 -170 11 -23 24 -58 25 -65 1 -4 23 -61 71 -185 10 -24
12 -32 14 -45 1 -7 171 -10 489 -10 l489 0 19 57 c10 32 23 61 29 65 5 4 7 8
3 8 -4 0 4 26 16 58 13 31 41 104 64 162 37 97 60 158 179 470 24 63 47 124
52 135 5 11 22 56 39 100 16 44 33 89 37 100 5 11 9 22 10 25 1 3 5 14 10 25
4 11 23 61 42 110 19 50 46 118 59 152 13 34 24 64 24 68 0 4 6 21 14 38 18
39 106 266 111 287 3 14 47 124 65 165 5 11 18 47 30 80 11 33 25 69 30 80 5
11 32 81 60 155 61 162 91 239 165 430 31 80 58 150 59 155 2 6 8 21 13 35 6
14 38 97 71 185 33 88 82 214 107 280 26 66 48 125 49 130 2 6 8 24 15 40 6
17 32 84 57 150 25 66 52 134 59 150 7 17 29 75 50 130 20 55 43 114 50 130 7
17 16 41 20 54 4 13 14 40 23 60 9 20 17 41 18 46 2 9 128 339 149 390 4 11
18 47 30 80 13 33 46 121 75 195 29 74 53 141 53 148 0 6 4 12 9 12 4 0 8 6 8
13 0 6 23 71 51 142 92 238 97 253 92 259 -4 3 -2 6 4 6 9 0 19 22 28 60 0 3
22 59 47 125 52 133 65 168 66 175 1 3 15 39 32 80 17 41 33 82 35 90 2 8 41
110 85 225 45 116 99 257 121 315 22 58 44 114 49 125 5 11 25 65 45 120 20
55 43 112 51 128 8 15 12 27 9 27 -3 0 -1 9 5 21 6 11 22 49 36 85 l24 64
-525 0 c-492 0 -526 -1 -531 -17 -4 -10 -12 -31 -19 -48 -18 -42 -29 -79 -27
-87 1 -5 -3 -8 -8 -8 -6 0 -10 -6 -10 -14 0 -8 -17 -58 -39 -112 -21 -55 -57
-148 -81 -209 -23 -60 -47 -121 -53 -135 -6 -14 -11 -27 -12 -30 -6 -24 -18
-59 -25 -75 -19 -41 -33 -80 -32 -87 1 -5 -2 -8 -6 -8 -5 0 -9 -6 -9 -12 -1
-22 -37 -113 -48 -120 -6 -5 -6 -8 0 -8 5 0 4 -5 -3 -12 -7 -7 -12 -22 -12
-33 0 -12 -3 -24 -6 -28 -8 -7 -74 -169 -74 -180 0 -5 -6 -23 -14 -40 -8 -18
-37 -90 -64 -162 -27 -71 -53 -139 -57 -150 -5 -11 -25 -63 -45 -115 l-37 -95
-1523 0 -1523 0 -37 95 c-80 202 -110 280 -122 319 -7 23 -16 41 -20 41 -5 0
-8 7 -8 16 0 8 -9 36 -19 62 -11 26 -31 79 -46 117 -15 39 -43 110 -62 159
-19 49 -36 94 -38 100 -1 6 -7 22 -12 36 -6 14 -19 45 -28 70 -9 25 -21 54
-25 65 -14 31 -94 239 -95 245 0 3 -10 30 -22 60 -46 121 -95 246 -103 265 -4
11 -18 46 -31 78 l-23 57 -503 0 -503 0 14 -37z m4401 -2605 c3 -3 -3 -26 -14
-51 -12 -25 -21 -49 -21 -53 0 -8 -67 -198 -81 -229 -12 -29 -78 -212 -95
-265 -8 -25 -19 -54 -25 -65 -5 -12 -11 -27 -13 -35 -2 -14 -47 -140 -66 -185
-5 -11 -39 -105 -76 -210 -37 -104 -72 -201 -77 -215 -6 -14 -11 -32 -13 -40
-2 -8 -7 -23 -13 -35 -8 -18 -144 -393 -147 -405 -1 -5 -5 -16 -29 -80 -22
-58 -50 -135 -135 -375 -45 -126 -88 -244 -96 -262 -8 -17 -14 -36 -14 -42 0
-6 -4 -19 -9 -29 -5 -9 -23 -57 -41 -107 -17 -49 -35 -99 -40 -110 -5 -11 -24
-65 -43 -120 -114 -328 -157 -437 -157 -396 0 12 -142 416 -170 486 -20 49
-44 113 -56 150 -18 56 -112 316 -123 340 -5 11 -16 40 -24 65 -19 57 -105
300 -114 320 -3 8 -7 20 -9 25 -5 18 -85 239 -94 260 -5 11 -32 85 -60 165
-28 80 -62 174 -75 210 -26 72 -36 102 -36 110 -1 3 -4 10 -9 15 -4 6 -13 28
-19 50 -7 22 -16 49 -21 60 -5 11 -23 58 -39 105 -70 200 -107 301 -121 335
-5 11 -16 40 -24 65 -8 25 -21 63 -29 85 -8 22 -18 49 -23 60 -4 11 -8 27 -10
35 -2 8 -7 23 -13 35 -12 25 -121 326 -121 335 0 8 2387 7 2395 -2z"/>
</g>
</svg>
