<svg width="432" height="106" viewBox="0 0 432 106" fill="none" xmlns="http://www.w3.org/2000/svg">
<g filter="url(#filter0_i_6_181)">
<path fill-rule="evenodd" clip-rule="evenodd" d="M40.2802 104.507L0 0H14.7293L24.7994 25.9775H69.2879L79.3579 0H79.4142H94.6884H244.84H258.803H258.968V44.6394H314.879V0H315.144H329.008H337.312H351.506H352.642L387.812 66.4366L417.571 0H432L393.674 84.0535C391.97 87.8357 390.217 91.1202 388.413 93.907C386.61 96.6939 384.606 98.9831 382.401 100.775C380.197 102.566 377.692 103.86 374.886 104.656C372.081 105.552 368.824 106 365.117 106C364.015 106 362.913 105.95 361.81 105.851C360.808 105.851 359.907 105.801 359.105 105.701V93.1606C359.907 93.2601 360.808 93.3596 361.81 93.4592H365.117C367.221 93.4592 369.025 93.3099 370.528 93.0113C372.031 92.6131 373.333 91.9662 374.435 91.0704C375.638 90.0751 376.69 88.7812 377.592 87.1887C378.594 85.4967 379.646 83.4066 380.748 80.9183L343.775 12.04H329.008V104.507H314.879V56.8817H258.968V104.507H244.84V13.0032H89.6766L54.4083 104.507H40.2802ZM47.0436 86.5915L64.6286 38.2197H29.4586L47.0436 86.5915Z" fill="#F42121"/>
</g>
<defs>
<filter id="filter0_i_6_181" x="0" y="0" width="432" height="106" filterUnits="userSpaceOnUse" color-interpolation-filters="sRGB">
<feFlood flood-opacity="0" result="BackgroundImageFix"/>
<feBlend mode="normal" in="SourceGraphic" in2="BackgroundImageFix" result="shape"/>
<feColorMatrix in="SourceAlpha" type="matrix" values="0 0 0 0 0 0 0 0 0 0 0 0 0 0 0 0 0 0 127 0" result="hardAlpha"/>
<feOffset/>
<feGaussianBlur stdDeviation="27"/>
<feComposite in2="hardAlpha" operator="arithmetic" k2="-1" k3="1"/>
<feColorMatrix type="matrix" values="0 0 0 0 0 0 0 0 0 0 0 0 0 0 0 0 0 0 0.05 0"/>
<feBlend mode="normal" in2="shape" result="effect1_innerShadow_6_181"/>
</filter>
</defs>
</svg>
